# xmcd
# 
# Track frame offsets:
#     150
#     17711
#     32482
#     51481
#     71519
#     82954
#     99395
#     114913
#     133578
#     147987
#     165289
#     171159
# 
# Disc length: 2561
# 
# Revision: 0
# Processed by: cddbd v1.5.2PL0 Copyright (c) Steve Scherf et al.
# Submitted via: fre:ac v1.0.17
# 
DISCID=9409ff0c
DTITLE=Roger Daltrey - Daltrey 
DYEAR=1998
DGENRE=Blues
TTITLE0=One Man Band
TTITLE1=The Way Of The World
TTITLE2=You Are Yourself
TTITLE3=Thinking
TTITLE4=You And Me
TTITLE5=It's A Hard Life
TTITLE6=Giving It All Away
TTITLE7=The Story So Far
TTITLE8=When The Music Stops
TTITLE9=Reasons
TTITLE10=One Man Band ( Reprise )
TTITLE11=There Is Love
EXTD=
EXTT0=
EXTT1=
EXTT2=
EXTT3=
EXTT4=
EXTT5=
EXTT6=
EXTT7=
EXTT8=
EXTT9=
EXTT10=
EXTT11=
PLAYORDER=
